<mxfile host="app.diagrams.net" modified="2021-03-21T10:05:38.963Z" agent="5.0 (X11)" etag="WbSa5KspennFHM0Ffb-L" version="14.4.9" type="github">
  <diagram id="THCaUwLLRoBPHUPWXU1s" name="Page-1">
    <mxGraphModel dx="1350" dy="745" grid="1" gridSize="10" guides="1" tooltips="1" connect="1" arrows="1" fold="1" page="1" pageScale="1" pageWidth="850" pageHeight="1100" background="none" math="0" shadow="0">
      <root>
        <mxCell id="0" />
        <mxCell id="1" parent="0" />
        <mxCell id="f72knO9NxHBlfXkf-Cks-2" value="&lt;div align=&quot;center&quot;&gt;Article&lt;/div&gt;" style="verticalAlign=top;align=center;overflow=fill;fontSize=12;fontFamily=Helvetica;html=1;" vertex="1" parent="1">
          <mxGeometry x="40" y="30" width="140" height="120" as="geometry" />
        </mxCell>
      </root>
    </mxGraphModel>
  </diagram>
</mxfile>
